<?xml version="1.0" encoding="UTF-8"?>
<svg width="290px" height="291px" viewBox="0 0 290 291" version="1.1" xmlns="http://www.w3.org/2000/svg" xmlns:xlink="http://www.w3.org/1999/xlink">
    <g stroke="none" stroke-width="1" fill="none" fill-rule="evenodd">
        <path d="M246,4.00828355 C267,-1.99171645 282.278747,0.336870285 290,1.00828355 C278,3.00828355 273,4.00828355 262,6.00828355 C253.75,7.50828355 239.3125,13.5082836 225.4375,20.2114086 L224.117988,20.8518058 C219.946287,22.8856928 215.845238,24.9725693 212,27.0082836 C195,36.0082836 189,56.0082836 187,68.0082836 C185,80.0082836 189,96.0082836 182,128.008284 C175,160.008284 143,183.008284 101,213.008284 C73,233.008284 50.6666667,259.008284 34,291.008284 C42.6666667,255.67495 49.6666667,229.67495 55,213.008284 C60.3333333,196.341617 71.3333333,169.67495 88,133.008284 C92.6666667,136.341617 96.3333333,138.67495 99,140.008284 C117.72,149.368284 126.7056,150.210684 134.498736,150.128316 L135.096,150.120284 C135.3936,150.115484 135.68976,150.109604 135.984966,150.103076 L136.57425,150.089284 C137.2606,150.072484 137.94352,150.053724 138.629184,150.038492 L139.217712,150.026428 C139.8072,150.015484 140.4,150.008284 141,150.008284 C114,148.008284 95,134.008284 79,123.008284 C63,112.008284 48,97.0082836 37,76.0082836 C29.6666667,62.0082836 17.3333333,42.6749502 0,18.0082836 C6,20.6749502 13.6666667,24.6749502 23,30.0082836 C32.3333333,35.3416169 65,49.0082836 121,71.0082836 C122.333333,53.6749502 124.333333,41.3416169 127,34.0082836 C131,23.0082836 141,9.00828355 162,8.00828355 C175.23,7.37828355 181.7127,10.7172836 187.449228,13.7744846 L187.9935,14.0646586 C188.4455,14.3055336 188.894,14.5437836 189.342,14.7772836 L189.879552,15.0550676 L189.879552,15.0550676 L190.417776,15.3274756 C192.7532,16.4950836 195.14,17.4882836 198,18.0082836 C209,20.0082836 225,10.0082836 246,4.00828355 Z M167,22.0082836 C165.343146,22.0082836 164,23.3514293 164,25.0082836 C164,26.6651378 165.343146,28.0082836 167,28.0082836 C168.656854,28.0082836 170,26.6651378 170,25.0082836 C170,23.3514293 168.656854,22.0082836 167,22.0082836 Z" fill="#fee4f2"></path>
    </g>
</svg>
